HIERARCHY
ROOT Hips
{
	OFFSET 0.000000 71.427986 0.000000
	CHANNELS 6 Xposition Yposition Zposition Xrotation Yrotation Zrotation
	JOINT Pelvis
	{
		OFFSET 0.000000 0.000000 0.000000
		CHANNELS 3 Xrotation Yrotation Zrotation
		JOINT LeftUpLeg
		{
			OFFSET 6.797100 -2.508499 -1.318700
			CHANNELS 3 Xrotation Yrotation Zrotation
			JOINT LeftLeg
			{
				OFFSET 0.069008 -29.241863 0.690200
				CHANNELS 3 Xrotation Yrotation Zrotation
				JOINT LeftFoot
				{
					OFFSET -0.069008 -29.568123 -0.266800
					CHANNELS 3 Xrotation Yrotation Zrotation
					JOINT LeftToeBase
					{
						OFFSET 3.145500 -8.631000 16.059900
						CHANNELS 3 Xrotation Yrotation Zrotation
						End Site
						{
							OFFSET 0.000000 18.501587 0.000000
						}
					}
				}
			}
			JOINT Left_ShortSleeve
			{
				OFFSET 0.265923 -10.480953 1.153800
				CHANNELS 3 Xrotation Yrotation Zrotation
				End Site
				{
					OFFSET 1.725763 19.823879 0.000000
				}
			}
		}
		JOINT RightUpLeg
		{
			OFFSET -6.797100 -2.508499 -1.318700
			CHANNELS 3 Xrotation Yrotation Zrotation
			JOINT RightLeg
			{
				OFFSET -0.082453 -29.241932 0.688000
				CHANNELS 3 Xrotation Yrotation Zrotation
				JOINT RightFoot
				{
					OFFSET 0.082453 -29.568058 -0.264600
					CHANNELS 3 Xrotation Yrotation Zrotation
					JOINT RightToeBase
					{
						OFFSET -3.115300 -8.682800 16.113400
						CHANNELS 3 Xrotation Yrotation Zrotation
						End Site
						{
							OFFSET 0.000000 18.567114 0.000000
						}
					}
				}
			}
			JOINT Right_ShortSleeve
			{
				OFFSET -0.265923 -10.480953 1.153800
				CHANNELS 3 Xrotation Yrotation Zrotation
				End Site
				{
					OFFSET -1.725766 19.823910 0.000000
				}
			}
		}
	}
	JOINT Spine
	{
		OFFSET 0.000000 13.368103 0.470500
		CHANNELS 3 Xrotation Yrotation Zrotation
		JOINT Spine1
		{
			OFFSET 0.147000 13.837402 0.538800
			CHANNELS 3 Xrotation Yrotation Zrotation
			JOINT Spine2
			{
				OFFSET 0.168000 16.242897 -1.435500
				CHANNELS 3 Xrotation Yrotation Zrotation
				JOINT Neck
				{
					OFFSET 0.217200 18.631500 -1.679100
					CHANNELS 3 Xrotation Yrotation Zrotation
					JOINT Head
					{
						OFFSET 0.000000 6.599396 1.385900
						CHANNELS 3 Xrotation Yrotation Zrotation
						JOINT Hat
						{
							OFFSET -0.532200 27.220596 -10.096100
							CHANNELS 3 Xrotation Yrotation Zrotation
							End Site
							{
								OFFSET 0.000000 22.029861 0.000000
							}
						}
						JOINT HairD
						{
							OFFSET -10.777400 17.437393 -1.325900
							CHANNELS 3 Xrotation Yrotation Zrotation
							JOINT HairD1
							{
								OFFSET -3.290299 -11.051193 1.062200
								CHANNELS 3 Xrotation Yrotation Zrotation
								End Site
								{
									OFFSET 0.000000 11.579437 0.000000
								}
							}
						}
						JOINT HairB
						{
							OFFSET -10.777400 17.437393 1.467900
							CHANNELS 3 Xrotation Yrotation Zrotation
							JOINT HairB1
							{
								OFFSET -1.561200 -12.956299 3.590200
								CHANNELS 3 Xrotation Yrotation Zrotation
								End Site
								{
									OFFSET 0.000000 13.534866 0.000000
								}
							}
						}
						JOINT HairA
						{
							OFFSET 9.713100 17.437393 1.467900
							CHANNELS 3 Xrotation Yrotation Zrotation
							JOINT HairA1
							{
								OFFSET 1.561200 -12.956299 3.590200
								CHANNELS 3 Xrotation Yrotation Zrotation
								End Site
								{
									OFFSET 0.000000 13.534866 0.000000
								}
							}
						}
						JOINT HairC
						{
							OFFSET 9.713100 17.437393 -1.325900
							CHANNELS 3 Xrotation Yrotation Zrotation
							JOINT HairC1
							{
								OFFSET 3.290300 -11.051193 1.062200
								CHANNELS 3 Xrotation Yrotation Zrotation
								End Site
								{
									OFFSET 0.000000 11.579437 0.000000
								}
							}
						}
					}
				}
				JOINT LeftShoulder
				{
					OFFSET 5.101800 15.108002 -2.763700
					CHANNELS 3 Xrotation Yrotation Zrotation
					JOINT LeftArm
					{
						OFFSET 9.825497 2.506317 -1.597400
						CHANNELS 3 Xrotation Yrotation Zrotation
						JOINT LeftForeArm
						{
							OFFSET 21.966244 0.000000 0.000000
							CHANNELS 3 Xrotation Yrotation Zrotation
							JOINT LeftHand
							{
								OFFSET 33.879036 0.000000 0.000000
								CHANNELS 3 Xrotation Yrotation Zrotation
								JOINT LeftHandThumb1
								{
									OFFSET 6.715286 -2.359680 3.363841
									CHANNELS 3 Xrotation Yrotation Zrotation
									JOINT LeftHandThumb2
									{
										OFFSET 2.507072 -1.447464 1.447461
										CHANNELS 3 Xrotation Yrotation Zrotation
										JOINT LeftHandThumb3
										{
											OFFSET 2.898338 -1.673355 1.673357
											CHANNELS 3 Xrotation Yrotation Zrotation
											End Site
											{
												OFFSET -0.295959 3.727692 -0.131651
											}
										}
									}
								}
								JOINT LeftHandIndex1
								{
									OFFSET 14.190811 -0.254547 3.840278
									CHANNELS 3 Xrotation Yrotation Zrotation
									JOINT LeftHandIndex2
									{
										OFFSET 3.551727 0.000000 -0.000000
										CHANNELS 3 Xrotation Yrotation Zrotation
										JOINT LeftHandIndex3
										{
											OFFSET 2.894196 0.000000 0.000000
											CHANNELS 3 Xrotation Yrotation Zrotation
											End Site
											{
												OFFSET -1.000603 2.690872 0.366626
											}
										}
									}
								}
								JOINT LeftHandMiddle1
								{
									OFFSET 13.776489 0.000000 0.000000
									CHANNELS 3 Xrotation Yrotation Zrotation
									JOINT LeftHandMiddle2
									{
										OFFSET 3.438232 0.000000 0.000000
										CHANNELS 3 Xrotation Yrotation Zrotation
										JOINT LeftHandMiddle3
										{
											OFFSET 3.691551 0.000000 0.000000
											CHANNELS 3 Xrotation Yrotation Zrotation
											End Site
											{
												OFFSET -1.082298 3.499527 0.457670
											}
										}
									}
								}
								JOINT LeftHandRing1
								{
									OFFSET 13.966164 -0.268127 -3.067488
									CHANNELS 3 Xrotation Yrotation Zrotation
									JOINT LeftHandRing2
									{
										OFFSET 3.162567 0.000000 0.000000
										CHANNELS 3 Xrotation Yrotation Zrotation
										JOINT LeftHandRing3
										{
											OFFSET 3.324348 0.000000 0.000000
											CHANNELS 3 Xrotation Yrotation Zrotation
											End Site
											{
												OFFSET -0.861900 3.184998 0.405154
											}
										}
									}
								}
								JOINT LeftHandPinky1
								{
									OFFSET 13.131393 -0.168503 -5.746925
									CHANNELS 3 Xrotation Yrotation Zrotation
									JOINT LeftHandPinky2
									{
										OFFSET 2.849182 0.000000 0.000000
										CHANNELS 3 Xrotation Yrotation Zrotation
										JOINT LeftHandPinky3
										{
											OFFSET 2.805038 0.000000 0.000000
											CHANNELS 3 Xrotation Yrotation Zrotation
											End Site
											{
												OFFSET -0.882500 2.642609 0.325652
											}
										}
									}
								}
							}
							JOINT Left_Sleeve
							{
								OFFSET 6.592125 -0.646545 0.805568
								CHANNELS 3 Xrotation Yrotation Zrotation
								End Site
								{
									OFFSET -0.000179 20.275787 -0.000000
								}
							}
						}
					}
				}
				JOINT RightShoulder
				{
					OFFSET -5.731700 15.108002 -2.763700
					CHANNELS 3 Xrotation Yrotation Zrotation
					JOINT RightArm
					{
						OFFSET -9.825497 2.506317 -1.597400
						CHANNELS 3 Xrotation Yrotation Zrotation
						JOINT RightForeArm
						{
							OFFSET -21.966242 0.000000 0.000000
							CHANNELS 3 Xrotation Yrotation Zrotation
							JOINT RightHand
							{
								OFFSET -33.879032 0.000000 0.000000
								CHANNELS 3 Xrotation Yrotation Zrotation
								JOINT RightHandThumb1
								{
									OFFSET -6.715286 -2.359680 3.363841
									CHANNELS 3 Xrotation Yrotation Zrotation
									JOINT RightHandThumb2
									{
										OFFSET -2.507072 -1.447464 1.447461
										CHANNELS 3 Xrotation Yrotation Zrotation
										JOINT RightHandThumb3
										{
											OFFSET -2.898338 -1.673355 1.673357
											CHANNELS 3 Xrotation Yrotation Zrotation
											End Site
											{
												OFFSET 0.295959 3.727692 -0.131651
											}
										}
									}
								}
								JOINT RightHandIndex1
								{
									OFFSET -14.190811 -0.254547 3.840278
									CHANNELS 3 Xrotation Yrotation Zrotation
									JOINT RightHandIndex2
									{
										OFFSET -3.551727 0.000000 -0.000000
										CHANNELS 3 Xrotation Yrotation Zrotation
										JOINT RightHandIndex3
										{
											OFFSET -2.894196 0.000000 0.000000
											CHANNELS 3 Xrotation Yrotation Zrotation
											End Site
											{
												OFFSET 1.000603 2.690872 0.366626
											}
										}
									}
								}
								JOINT RightHandMiddle1
								{
									OFFSET -13.776489 0.000000 0.000000
									CHANNELS 3 Xrotation Yrotation Zrotation
									JOINT RightHandMiddle2
									{
										OFFSET -3.438232 0.000000 0.000000
										CHANNELS 3 Xrotation Yrotation Zrotation
										JOINT RightHandMiddle3
										{
											OFFSET -3.691551 0.000000 0.000000
											CHANNELS 3 Xrotation Yrotation Zrotation
											End Site
											{
												OFFSET 1.082298 3.499527 0.457670
											}
										}
									}
								}
								JOINT RightHandRing1
								{
									OFFSET -13.966164 -0.268127 -3.067488
									CHANNELS 3 Xrotation Yrotation Zrotation
									JOINT RightHandRing2
									{
										OFFSET -3.162567 0.000000 0.000000
										CHANNELS 3 Xrotation Yrotation Zrotation
										JOINT RightHandRing3
										{
											OFFSET -3.324348 0.000000 0.000000
											CHANNELS 3 Xrotation Yrotation Zrotation
											End Site
											{
												OFFSET 0.861900 3.184998 0.405154
											}
										}
									}
								}
								JOINT RightHandPinky1
								{
									OFFSET -13.131393 -0.168503 -5.746925
									CHANNELS 3 Xrotation Yrotation Zrotation
									JOINT RightHandPinky2
									{
										OFFSET -2.849182 0.000000 0.000000
										CHANNELS 3 Xrotation Yrotation Zrotation
										JOINT RightHandPinky3
										{
											OFFSET -2.805038 0.000000 0.000000
											CHANNELS 3 Xrotation Yrotation Zrotation
											End Site
											{
												OFFSET 0.882500 2.642609 0.325652
											}
										}
									}
								}
							}
							JOINT Right_Sleeve
							{
								OFFSET -6.592125 -0.646545 0.805568
								CHANNELS 3 Xrotation Yrotation Zrotation
								End Site
								{
									OFFSET 0.000179 20.275787 -0.000000
								}
							}
						}
					}
				}
				JOINT Bind_Right_JacketString
				{
					OFFSET -3.534800 11.969597 7.200700
					CHANNELS 3 Xrotation Yrotation Zrotation
					JOINT Bind_Right_JacketString1
					{
						OFFSET -0.319900 -6.102600 2.794100
						CHANNELS 3 Xrotation Yrotation Zrotation
						End Site
						{
							OFFSET 0.000000 6.719452 0.000000
						}
					}
				}
				JOINT Bind_Left_JacketString
				{
					OFFSET 2.904800 11.969597 7.200700
					CHANNELS 3 Xrotation Yrotation Zrotation
					JOINT Bind_Left_JacketString1
					{
						OFFSET 0.364800 -5.904503 3.186800
						CHANNELS 3 Xrotation Yrotation Zrotation
						End Site
						{
							OFFSET 0.000000 6.719513 0.000000
						}
					}
				}
				JOINT HairE
				{
					OFFSET 5.915200 17.612701 -11.592200
					CHANNELS 3 Xrotation Yrotation Zrotation
					JOINT HairE1
					{
						OFFSET 0.289200 -7.171898 -1.284500
						CHANNELS 3 Xrotation Yrotation Zrotation
						End Site
						{
							OFFSET 0.000000 7.291756 0.000000
						}
					}
				}
				JOINT HairF
				{
					OFFSET -0.864800 17.612701 -11.592200
					CHANNELS 3 Xrotation Yrotation Zrotation
					JOINT HairF1
					{
						OFFSET 0.000000 -14.087097 -2.127501
						CHANNELS 3 Xrotation Yrotation Zrotation
						End Site
						{
							OFFSET 0.000000 14.246841 0.000000
						}
					}
				}
				JOINT HairG
				{
					OFFSET -8.087700 17.612701 -11.592200
					CHANNELS 3 Xrotation Yrotation Zrotation
					JOINT HairG1
					{
						OFFSET -0.293600 -6.081398 -0.910100
						CHANNELS 3 Xrotation Yrotation Zrotation
						End Site
						{
							OFFSET 0.000000 6.156120 0.000000
						}
					}
				}
			}
		}
	}
	JOINT Pouch
	{
		OFFSET 0.000000 4.394501 10.847300
		CHANNELS 3 Xrotation Yrotation Zrotation
		End Site
		{
			OFFSET 0.000000 21.880577 0.000000
		}
	}
	JOINT Bag
	{
		OFFSET -13.229000 4.813004 -0.593300
		CHANNELS 3 Xrotation Yrotation Zrotation
		End Site
		{
			OFFSET 0.000000 21.880577 0.000000
		}
	}
	JOINT OccupyGuyFacialAnim_Joint
	{
		OFFSET 1.000000 -70.206398 -1.655000
		CHANNELS 3 Xrotation Yrotation Zrotation
		End Site
		{
			OFFSET 0.000000 21.880577 0.000000
		}
	}
}
MOTION
Frames: 4
Frame Time: 0.033333
-12.208931 21.408867 252.930450 -53.289945 2.789556 153.253831 -0.000001 0.000001 -0.000001 -44.425012 7.380794 2.222162 125.994492 0.138578 -0.405880 19.132661 -0.706814 -6.004415 0.000001 -0.000002 0.000000 -0.000000 -0.000001 -0.000002 -70.314858 -7.148198 -2.505946 83.960080 -10.233749 5.156492 14.619147 -10.079593 3.896327 -0.000000 0.000001 0.000000 0.000001 0.000001 0.000001 22.715734 1.961438 3.747266 2.860858 0.528044 -0.819074 2.856570 0.624275 -0.861915 8.267829 -2.480383 1.788538 33.993582 -18.216263 8.198346 -0.000001 -0.000000 -0.000002 -0.000001 -0.000000 -0.000002 -0.000001 -0.000000 -0.000001 -0.000001 -0.000000 -0.000000 -0.000001 -0.000000 -0.000000 -0.000001 -0.000000 -0.000000 -0.000001 -0.000000 -0.000000 -0.000001 -0.000000 -0.000002 -0.000001 -0.000000 -0.000002 0.511235 -7.441500 -11.493252 60.463792 -23.807394 -61.495533 -0.000002 -49.937350 0.000000 31.042762 -12.092844 12.896457 -39.343846 11.105738 -0.193154 9.351710 21.346988 0.566006 0.000001 0.000001 0.000000 0.072505 -1.398938 -16.997033 0.148401 1.311579 -12.910173 -0.000000 0.000006 -0.000001 -0.583469 1.669381 -20.473869 0.033045 0.622075 -6.082063 -0.000001 0.000002 0.000003 0.785140 5.391997 -19.578765 0.087839 1.011753 -9.923654 -0.000002 -0.000002 -0.000002 1.874186 13.747446 -14.922027 0.160853 1.364781 -13.443406 -0.000000 -0.000004 -0.000001 0.000003 0.000000 0.000001 9.347531 11.814885 -41.023045 -10.248047 -0.680983 -4.917699 0.000005 7.313387 0.000005 36.522309 -0.110617 -2.542471 -18.358398 4.964546 -9.292613 4.570296 -18.456220 -5.592087 0.000001 0.000000 0.000000 0.794936 2.525101 7.056171 0.157684 -1.202857 14.936449 -0.000003 -0.000001 0.000002 -0.744893 0.082637 15.056739 0.359662 -1.796280 22.642466 -0.000001 0.000001 0.000001 0.838457 -5.229248 20.532218 0.340010 -1.748481 22.007324 0.000002 0.000000 -0.000000 1.949642 -15.544530 21.212409 0.543023 -2.184299 27.918403 0.000000 0.000003 0.000001 -0.000000 -0.000000 0.000001 -0.000000 -0.000000 0.000002 -0.000000 -0.000001 0.000002 -0.000000 -0.000000 0.000000 -0.000000 -0.000000 0.000000 -0.000000 -0.000000 0.000002 -0.000000 -0.000001 0.000002 -0.000000 -0.000000 0.000000 -0.000000 -0.000000 0.000000 -0.000000 -0.000000 0.000002 -0.000000 -0.000001 0.000002 -0.000001 0.000001 -0.000001 -0.000001 0.000001 -0.000001 -0.000001 0.000001 -0.000001 
-13.642244 21.454643 253.420441 -52.742530 8.750943 155.374031 0.000002 0.000001 -0.000000 -50.064313 7.007301 -0.052093 119.900733 -0.726233 -0.800360 26.271119 -5.758044 -5.849340 0.000002 -0.000001 -0.000000 -0.000001 0.000001 -0.000001 -77.416164 -0.025484 -8.698854 85.010126 -10.364931 3.840591 10.822414 -13.132113 -0.202155 -0.000000 -0.000002 -0.000000 0.000002 -0.000002 -0.000000 22.023101 4.155646 3.795010 2.555236 1.009377 -0.514347 2.549854 1.078523 -0.560173 8.432336 -2.512125 1.296326 36.663516 -20.540786 9.231349 -0.000001 0.000001 -0.000001 -0.000001 0.000001 -0.000001 -0.000001 0.000001 -0.000000 -0.000001 0.000001 0.000001 -0.000001 0.000001 0.000001 -0.000001 0.000001 0.000001 -0.000001 0.000001 0.000001 -0.000001 0.000001 -0.000001 -0.000001 0.000001 -0.000001 0.427086 -6.601978 -15.747684 58.673114 -17.749271 -61.781677 -0.000018 -58.764625 -0.000020 45.406456 -2.557784 -2.060082 -9.930035 5.617846 0.721852 7.776339 15.563788 2.465116 -0.000001 0.000001 -0.000001 0.189553 -2.276889 -9.795442 0.536635 2.451333 -24.692901 -0.000001 0.000005 0.000002 -0.548405 1.324474 -17.641352 0.337492 1.961459 -19.523802 0.000002 0.000001 -0.000003 0.854516 5.494739 -21.077110 0.296028 1.840412 -18.273597 -0.000004 0.000002 0.000001 1.701675 14.238035 -18.506864 0.389784 2.103050 -20.998264 -0.000001 0.000000 -0.000004 0.000001 0.000003 0.000001 11.383586 16.027777 -41.943335 -5.867778 -7.241508 -3.836374 0.000020 7.464602 -0.000014 65.471953 5.697950 -4.102476 -18.309678 4.847546 -9.227951 4.550673 -18.440315 -5.544770 0.000002 -0.000001 0.000000 0.797579 2.527748 6.987390 0.158049 -1.204185 14.953547 -0.000002 0.000001 -0.000001 -0.741711 0.089061 14.983762 0.356527 -1.788751 22.542191 -0.000001 0.000003 -0.000002 0.833497 -5.222588 20.437714 0.336737 -1.740343 21.899699 -0.000001 -0.000002 -0.000003 1.938334 -15.539642 21.097078 0.536853 -2.172631 27.755958 -0.000001 0.000001 -0.000003 -0.000000 0.000000 0.000003 -0.000000 -0.000000 0.000001 -0.000000 0.000001 -0.000001 -0.000000 -0.000000 -0.000000 -0.000000 -0.000000 -0.000000 -0.000000 -0.000000 0.000001 -0.000000 0.000001 -0.000000 -0.000000 -0.000000 -0.000000 -0.000000 -0.000000 -0.000000 -0.000000 -0.000000 0.000001 -0.000000 0.000001 -0.000000 0.000002 0.000001 -0.000000 0.000002 0.000001 -0.000000 0.000002 0.000001 -0.000000 
-14.921837 20.676376 254.038696 -51.348918 16.016348 157.109978 0.000001 0.000000 0.000001 -53.896582 6.454144 1.337390 108.614051 -2.224131 -0.962529 27.702342 -5.246512 -5.109165 0.000002 -0.000002 0.000000 -0.000000 0.000001 0.000000 -84.822589 7.157500 -12.374099 84.061522 -10.319419 3.649144 0.983106 -15.460188 -11.496995 -0.000002 -0.000002 -0.000000 0.000003 -0.000000 -0.000002 23.163717 6.355028 2.801336 2.664580 1.629101 -0.545383 2.655580 1.697598 -0.611190 8.400053 -2.623411 0.697789 37.142541 -23.129278 10.873700 -0.000001 0.000001 0.000001 -0.000001 0.000001 0.000001 -0.000001 0.000001 0.000002 -0.000001 0.000001 0.000002 -0.000001 0.000001 0.000002 -0.000001 0.000001 0.000002 -0.000001 0.000001 0.000002 -0.000001 0.000001 0.000001 -0.000001 0.000001 0.000001 0.183308 -9.213334 -17.578626 50.992396 5.151586 -67.592092 -0.000031 -71.038318 -0.000023 66.187859 -3.926271 -19.539546 6.201609 0.583497 1.288042 6.969143 12.418630 3.184837 0.000003 -0.000002 0.000000 0.289333 -2.726768 -6.157558 0.825902 3.000971 -30.769172 -0.000001 0.000000 0.000002 -0.526881 1.169833 -16.370293 0.659882 2.703080 -27.433235 0.000001 -0.000001 -0.000003 0.910689 5.578856 -22.179677 0.482365 2.329799 -23.391759 -0.000001 0.000000 -0.000002 1.651847 14.547499 -20.686778 0.588892 2.561849 -25.887681 -0.000000 -0.000001 0.000004 -0.000000 -0.000003 0.000002 12.276084 18.002331 -42.464116 -9.840889 -8.586695 -4.020699 0.000019 10.538994 -0.000004 79.593356 5.740156 -8.106810 -18.192938 4.510312 -9.042075 4.489513 -18.397263 -5.407694 0.000001 -0.000001 0.000003 0.804810 2.537081 6.793497 0.158715 -1.206710 14.985654 -0.000002 0.000001 -0.000001 -0.732685 0.108510 14.771594 0.347301 -1.766394 22.245004 0.000001 0.000000 -0.000002 0.819234 -5.203586 20.162044 0.327173 -1.716394 21.583007 0.000001 0.000003 0.000001 1.904460 -15.523446 20.758673 0.519058 -2.138510 27.283196 -0.000001 -0.000001 -0.000001 0.000000 -0.000002 0.000003 -0.000000 -0.000002 -0.000001 -0.000000 -0.000002 -0.000002 -0.000000 -0.000002 -0.000000 -0.000000 -0.000002 -0.000000 -0.000000 -0.000002 -0.000001 -0.000000 -0.000002 -0.000001 -0.000000 -0.000002 -0.000000 -0.000000 -0.000002 -0.000000 -0.000000 -0.000002 -0.000001 -0.000000 -0.000002 -0.000001 0.000001 0.000000 0.000001 0.000001 0.000000 0.000001 0.000001 0.000000 0.000001 
-15.901061 19.212318 255.100113 -47.201508 20.682603 158.883205 0.000001 0.000001 0.000000 -50.980108 5.411799 1.419510 91.678822 -1.546271 -1.218139 25.912775 0.892749 -5.448847 0.000004 0.000001 0.000001 -0.000000 0.000000 0.000003 -88.889762 15.863005 -16.731870 86.396436 -10.216933 2.648341 -7.245406 -19.119583 -10.072255 -0.000002 -0.000001 0.000000 -0.000003 0.000001 -0.000003 29.164573 4.293891 0.060190 3.621413 1.387763 -1.181135 3.704540 1.492869 -1.346638 8.288521 -2.502232 0.037432 37.466675 -23.775235 8.848020 0.000003 0.000002 -0.000000 0.000003 0.000002 -0.000000 0.000003 0.000002 0.000001 0.000003 0.000002 -0.000000 0.000002 0.000001 -0.000002 0.000003 0.000002 -0.000000 0.000002 0.000001 -0.000002 0.000003 0.000002 -0.000000 0.000003 0.000002 -0.000000 -0.113864 -13.569535 -17.590959 41.420118 27.400378 -66.932043 -0.000192 -78.535455 -0.000202 64.104474 -5.789670 -17.006179 6.201615 0.583505 1.288041 6.969144 12.418609 3.184846 0.000002 -0.000002 -0.000000 0.289505 -2.726784 -6.157548 0.825915 3.000982 -30.769176 0.000001 0.000001 -0.000000 -0.527668 1.167122 -16.370573 0.659888 2.703082 -27.433233 -0.000001 0.000000 0.000001 0.909430 5.575770 -22.179911 0.482359 2.329793 -23.391754 -0.000004 -0.000000 -0.000001 1.651864 14.547531 -20.686792 0.588892 2.561829 -25.887682 -0.000000 -0.000001 0.000001 -0.000000 0.000002 -0.000000 12.394274 19.296090 -42.823172 -8.889737 -9.150344 -4.252696 0.000028 18.105604 0.000002 71.396903 1.821490 -4.785355 -18.052385 3.972535 -8.747536 4.383641 -18.334477 -5.188117 -0.000001 0.000000 -0.000001 0.817577 2.551819 6.492935 0.159114 -1.208168 15.004076 -0.000001 0.000001 -0.000001 -0.717728 0.138651 14.430153 0.332405 -1.729527 21.756446 -0.000000 0.000001 -0.000001 0.796464 -5.172898 19.717078 0.311885 -1.677247 21.066564 -0.000000 -0.000002 -0.000001 1.849170 -15.495788 20.208648 0.491027 -2.083296 26.522031 0.000002 -0.000001 -0.000001 -0.000001 -0.000001 0.000001 0.000000 0.000000 0.000000 -0.000000 0.000000 0.000000 0.000000 0.000000 0.000000 0.000000 0.000000 0.000000 0.000000 0.000000 0.000000 -0.000000 0.000000 0.000000 0.000000 0.000000 0.000000 0.000000 0.000000 0.000000 0.000000 0.000000 0.000000 -0.000000 0.000000 0.000000 0.000001 0.000001 0.000000 0.000001 0.000001 0.000000 0.000001 0.000001 0.000000 
